<?xml version="1.0" standalone="no"?>
<!DOCTYPE svg PUBLIC "-//W3C//DTD SVG 20010904//EN"
 "http://www.w3.org/TR/2001/REC-SVG-20010904/DTD/svg10.dtd">
<svg version="1.0" xmlns="http://www.w3.org/2000/svg"
 width="908.000000pt" height="908.000000pt" viewBox="0 0 908.000000 908.000000"
 preserveAspectRatio="xMidYMid meet">
<metadata>
Created by potrace 1.11, written by Peter Selinger 2001-2013
</metadata>
<g transform="translate(0.000000,908.000000) scale(0.100000,-0.100000)"
fill="#000000" stroke="none">
<path d="M4079 7701 c-31 -31 -30 -26 -30 -201 0 -36 0 -159 1 -275 0 -115 1
-227 0 -247 0 -37 0 -37 -37 -32 -53 6 -47 -9 -57 164 -3 52 -8 124 -11 160
-3 36 -8 105 -10 153 -7 123 -35 166 -108 162 -77 -5 -100 -46 -92 -164 3 -46
8 -122 11 -170 2 -47 7 -115 9 -151 2 -36 6 -108 10 -160 3 -52 8 -122 10
-155 3 -33 7 -126 10 -207 4 -135 3 -148 -13 -148 -20 0 -162 119 -265 222
-73 73 -120 104 -168 112 -26 4 -88 -23 -108 -48 -15 -18 -9 -29 59 -121 91
-124 195 -270 192 -272 -1 -2 6 -11 16 -21 9 -11 24 -28 33 -38 8 -10 48 -48
88 -84 91 -81 198 -178 228 -207 13 -12 23 -30 24 -40 0 -10 2 -27 5 -38 2
-11 7 -42 10 -70 3 -27 7 -51 8 -52 2 -2 36 8 77 22 41 14 76 26 79 26 3 0 21
4 40 9 19 5 62 12 94 16 33 3 67 8 75 9 9 2 63 4 121 4 100 1 106 2 107 22 2
18 35 59 166 203 9 11 18 28 18 38 2 19 5 36 9 41 1 1 3 13 4 27 3 26 14 88
22 121 9 41 12 56 19 104 9 52 11 63 14 68 1 1 4 17 7 36 2 19 7 46 10 60 3
14 7 40 10 56 2 17 7 41 11 55 3 14 8 34 10 45 2 11 6 34 9 50 3 17 7 41 9 55
1 14 4 25 5 25 1 0 3 9 4 20 2 11 6 38 11 60 4 22 9 49 11 60 8 47 15 82 20
105 3 14 8 39 10 55 5 31 20 112 30 155 11 48 5 83 -17 106 -31 33 -84 41
-125 19 -40 -22 -49 -43 -70 -170 -2 -11 -6 -33 -9 -50 -3 -16 -10 -57 -16
-90 -5 -33 -14 -80 -19 -105 -5 -25 -12 -58 -14 -75 -2 -16 -5 -32 -6 -35 -1
-3 -3 -12 -4 -20 -1 -11 -13 -15 -51 -14 l-50 1 1 34 c1 35 12 137 19 180 6
42 17 123 20 154 2 17 8 66 14 110 26 178 26 192 -2 228 -36 47 -107 49 -153
2 -14 -13 -22 -38 -28 -85 -3 -19 -8 -57 -12 -85 -4 -27 -8 -63 -10 -80 -11
-104 -15 -133 -19 -155 -2 -14 -7 -43 -9 -65 -3 -22 -8 -65 -12 -95 -4 -30 -8
-65 -10 -77 -1 -12 -5 -26 -8 -32 -7 -10 -31 -9 -43 3 -8 8 -12 144 -13 525
-1 149 -5 217 -13 227 -36 44 -53 54 -90 54 -29 0 -45 -7 -68 -29z"/>
<path d="M6074 7011 c-17 -10 -41 -33 -53 -49 -12 -17 -36 -46 -54 -65 -33
-35 -54 -59 -142 -162 -27 -32 -57 -66 -65 -75 -8 -9 -40 -45 -70 -81 -67 -78
-97 -113 -130 -150 -14 -15 -47 -53 -75 -85 -81 -94 -138 -145 -148 -135 -5 5
-10 31 -12 57 -2 27 -7 72 -10 101 -4 29 -8 110 -9 180 -2 127 -12 170 -48
214 -22 27 -105 46 -122 28 -5 -5 -13 -40 -21 -96 -5 -34 -14 -93 -20 -128 -1
-11 -6 -42 -10 -70 -4 -27 -8 -57 -10 -65 -17 -91 -25 -181 -21 -255 3 -49 5
-90 6 -90 0 0 3 -45 6 -101 3 -55 7 -116 8 -135 3 -33 -11 -79 -23 -79 -4 0
-15 -17 -26 -37 -14 -26 -16 -38 -8 -40 25 -9 140 -87 193 -132 76 -64 128
-117 185 -186 26 -33 49 -62 51 -64 2 -2 10 2 19 9 8 7 55 14 112 17 54 2 115
5 135 6 25 1 53 14 87 40 28 20 53 37 56 37 3 0 11 5 18 10 11 10 111 82 164
119 11 7 125 87 254 177 129 90 243 170 253 177 10 6 31 22 46 35 15 12 31 22
34 22 4 0 12 5 19 10 7 6 49 37 94 70 67 48 83 65 88 92 11 58 -37 120 -94
122 -32 1 -106 -43 -276 -168 -89 -65 -191 -136 -197 -136 -3 0 -20 17 -37 37
l-31 38 27 22 c99 78 209 165 231 180 13 10 32 25 41 34 9 8 36 31 61 49 25
19 56 45 70 57 14 13 28 23 32 23 3 0 20 14 37 31 37 36 43 78 20 125 -19 38
-86 60 -124 41 -16 -8 -165 -122 -212 -162 -6 -5 -30 -23 -52 -39 -23 -17 -41
-33 -41 -38 0 -4 -4 -8 -10 -8 -5 0 -18 -7 -27 -16 -10 -8 -54 -44 -98 -79
-74 -59 -81 -63 -97 -48 -10 9 -18 19 -18 23 0 3 35 43 78 87 42 44 155 162
251 262 96 99 178 186 183 193 11 18 10 88 -1 88 -5 0 -12 9 -16 20 -4 12 -22
24 -46 31 -63 19 -42 37 -359 -290 l-224 -231 -15 25 c-9 14 -19 25 -23 25
-10 0 -10 37 0 42 4 2 34 34 67 73 33 38 65 75 70 81 6 6 33 37 62 70 28 32
61 70 73 84 83 95 91 108 89 149 -5 77 -82 121 -145 82z"/>
<path d="M2403 6842 c-39 -19 -67 -72 -58 -111 6 -29 23 -47 278 -292 l117
-114 -34 -38 -33 -39 -39 34 c-22 18 -41 35 -44 38 -3 3 -34 30 -70 60 -36 30
-70 59 -76 65 -24 22 -127 109 -152 129 -15 12 -36 30 -47 42 -47 48 -90 72
-123 68 -62 -7 -92 -43 -92 -109 1 -41 -5 -34 164 -180 32 -27 73 -63 92 -80
18 -16 67 -59 110 -95 157 -133 151 -126 131 -148 -18 -20 -19 -20 -98 31 -44
29 -88 57 -99 63 -11 6 -28 18 -38 27 -10 10 -22 17 -25 17 -6 0 -208 131
-279 181 -15 10 -32 19 -38 19 -5 0 -10 4 -10 8 0 5 -15 16 -34 25 -87 41
-168 -29 -143 -124 6 -25 163 -134 462 -323 44 -28 82 -54 83 -58 2 -5 10 -8
18 -8 8 0 14 -4 14 -10 0 -5 7 -10 15 -10 22 0 18 -21 -10 -54 l-24 -28 -33
20 c-18 11 -50 30 -72 41 -21 12 -116 67 -211 121 -101 59 -183 100 -199 100
-62 0 -108 -49 -103 -110 4 -48 29 -67 236 -182 20 -11 41 -24 46 -28 6 -4 30
-19 55 -32 25 -14 61 -34 80 -45 496 -284 550 -319 528 -338 -11 -10 -68 -30
-113 -41 -5 -1 -44 -11 -85 -23 -71 -19 -113 -28 -170 -36 -14 -2 -38 -9 -55
-16 -16 -7 -32 -13 -35 -13 -38 -9 -80 -72 -80 -121 0 -51 13 -64 60 -60 19 2
118 6 220 10 234 8 274 11 330 25 25 6 52 13 60 15 8 2 83 21 165 43 l151 39
53 -23 c41 -18 57 -21 67 -13 8 6 14 16 14 21 0 9 87 149 99 158 3 3 18 21 33
40 36 48 124 137 181 184 l48 39 -25 24 c-14 13 -30 23 -36 23 -5 0 -10 5 -10
10 0 6 -6 10 -13 10 -14 0 -42 83 -69 204 -15 67 -6 58 -434 471 -239 231
-388 375 -459 446 -61 59 -97 72 -142 51z"/>
<path d="M6440 5615 c-8 -8 -53 -43 -100 -79 -95 -73 -137 -106 -154 -121 -6
-6 -40 -33 -76 -60 -76 -58 -74 -56 -125 -120 -22 -27 -47 -57 -55 -66 -33
-36 -96 -113 -104 -128 -22 -38 -95 -101 -117 -102 -30 -1 -71 -8 -77 -14 -2
-2 1 -20 8 -39 6 -20 13 -48 15 -63 2 -16 8 -49 13 -74 16 -81 5 -379 -14
-411 -5 -7 27 -13 50 -9 7 2 61 -39 121 -90 97 -84 95 -83 172 -93 26 -3 90
-12 158 -22 17 -2 41 -6 55 -8 14 -3 45 -7 70 -10 25 -4 74 -11 110 -17 36 -5
81 -12 100 -14 43 -6 173 -25 219 -32 18 -2 45 -6 60 -8 14 -2 28 -4 31 -5 3
-2 9 -2 13 -1 5 1 34 -3 65 -8 52 -10 108 -18 172 -27 14 -1 45 -6 70 -9 112
-17 154 3 167 78 4 30 1 43 -20 71 -28 36 -28 36 -212 60 -22 3 -50 8 -62 10
-12 3 -46 7 -75 10 -29 4 -64 8 -78 11 -14 2 -47 6 -73 9 -27 3 -53 8 -57 11
-7 5 -8 56 -1 96 1 6 32 4 151 -6 30 -2 82 -7 115 -9 33 -3 85 -8 115 -11 88
-9 201 -17 253 -18 39 -1 53 4 73 24 41 41 38 111 -7 150 -18 16 -79 28 -179
34 -75 6 -182 15 -230 20 -25 3 -81 7 -125 11 -44 3 -91 7 -105 9 -14 2 -31 3
-38 4 -8 1 -11 11 -9 28 3 24 8 28 43 29 21 1 93 4 159 8 66 3 179 8 250 11
72 4 157 8 190 10 33 2 70 4 83 4 13 1 37 14 53 30 40 41 40 97 1 139 l-29 31
-113 -4 c-107 -4 -204 -9 -430 -21 -169 -10 -209 -6 -193 19 4 7 6 22 4 35 -1
12 1 22 6 23 4 0 17 2 28 5 18 3 59 7 190 19 28 3 70 7 95 10 25 3 65 8 90 10
24 3 67 7 95 11 27 3 56 6 63 7 19 1 62 55 63 80 3 47 -3 63 -32 90 -32 29
-55 31 -204 12 -27 -3 -70 -8 -95 -10 -118 -12 -140 -14 -295 -31 -16 -1 -57
-5 -90 -9 -33 -3 -78 -7 -100 -10 -125 -13 -159 -16 -247 -22 -74 -4 -98 -3
-98 7 0 17 152 212 221 283 104 106 125 193 63 258 -31 32 -33 33 -54 14z"/>
<path d="M4290 5579 c-105 -11 -166 -23 -245 -50 -149 -51 -276 -131 -391
-244 -100 -99 -168 -199 -227 -335 -22 -49 -55 -168 -60 -210 -2 -20 -6 -40
-8 -45 -7 -13 -3 -231 5 -275 56 -301 211 -540 449 -690 34 -22 67 -43 72 -48
14 -12 190 -79 240 -91 81 -20 102 -23 226 -26 128 -3 220 8 329 41 71 21 230
94 230 105 0 5 5 9 10 9 35 0 280 225 280 257 0 7 4 13 10 13 5 0 20 19 32 41
122 222 157 352 152 562 -2 120 -5 141 -25 222 -26 106 -87 240 -149 330 -132
192 -394 370 -605 410 -148 28 -223 34 -325 24z"/>
<path d="M1455 4880 c-60 -13 -93 -48 -90 -95 4 -59 28 -90 79 -102 11 -2 135
-5 274 -6 l252 -2 1 -25 c0 -14 2 -35 3 -48 2 -13 -2 -25 -7 -29 -5 -3 -57 -7
-116 -9 -145 -5 -348 -13 -456 -18 -85 -5 -92 -7 -117 -36 -38 -42 -38 -89 1
-132 29 -33 30 -33 118 -31 48 1 153 4 233 7 80 4 193 8 253 11 l107 4 0 -30
c0 -22 -5 -29 -20 -30 -11 -1 -23 -2 -27 -3 -5 -1 -33 -6 -63 -11 -30 -5 -57
-9 -60 -10 -41 -10 -73 -15 -110 -20 -25 -3 -52 -8 -61 -11 -10 -3 -30 -7 -45
-9 -16 -2 -40 -6 -54 -9 -14 -3 -81 -15 -150 -26 -69 -12 -135 -29 -148 -37
-55 -35 -58 -116 -6 -161 23 -20 34 -23 78 -18 28 3 62 8 76 11 13 2 40 7 60
10 20 3 47 8 60 11 14 2 36 7 50 9 14 2 48 8 75 14 28 5 68 12 90 15 23 4 52
9 65 11 101 20 195 34 199 30 3 -3 6 -21 8 -41 3 -41 -11 -49 -122 -68 -107
-19 -437 -107 -451 -120 -19 -20 -33 -60 -29 -82 2 -11 4 -26 4 -34 1 -8 15
-25 32 -37 31 -21 68 -24 127 -9 12 3 31 8 43 11 11 2 30 7 41 11 11 3 30 8
41 10 12 2 42 8 67 14 25 6 54 12 65 15 11 2 58 13 105 25 47 11 96 23 110 26
34 7 262 61 333 79 32 9 62 13 67 10 5 -3 11 -2 14 3 2 4 24 9 47 11 23 1 46
4 51 7 27 17 -5 -52 -77 -167 -5 -9 -20 -34 -31 -55 -12 -22 -36 -55 -53 -74
-44 -49 -91 -147 -91 -188 0 -42 31 -94 63 -109 23 -11 36 0 213 181 184 188
192 197 309 383 l120 191 71 22 72 22 -15 46 c-47 148 -56 216 -57 405 l-1
138 -62 -6 -63 -6 -109 70 -110 70 -373 6 c-205 4 -481 8 -614 9 -133 2 -245
5 -250 8 -5 3 -22 2 -39 -2z"/>
<path d="M5470 3873 c-54 -84 -46 -73 -127 -162 -38 -41 -95 -96 -128 -123
-107 -86 -103 -77 -50 -123 25 -22 47 -52 50 -65 8 -51 27 -176 31 -210 3 -19
10 -38 17 -42 7 -4 8 -8 4 -8 -5 0 -2 -6 5 -13 7 -8 27 -31 43 -52 56 -71 206
-260 235 -295 15 -19 69 -87 119 -150 51 -63 97 -122 104 -130 7 -8 28 -35 47
-60 19 -24 40 -50 45 -56 6 -6 48 -60 94 -118 46 -59 94 -114 105 -122 59 -41
146 10 146 86 0 33 -8 51 -37 88 -46 56 -75 91 -88 106 -6 6 -56 68 -112 137
l-102 126 34 31 c18 18 37 32 43 32 5 0 33 -28 63 -61 30 -34 65 -74 79 -89
87 -95 174 -192 212 -234 72 -82 82 -92 106 -105 45 -24 130 21 133 71 1 10 2
24 3 31 2 12 -12 48 -23 57 -3 3 -37 41 -76 85 -38 44 -72 82 -76 85 -3 3 -29
32 -58 65 -30 33 -68 76 -86 95 -78 86 -125 141 -125 148 0 4 9 13 20 20 17
10 23 10 34 0 7 -7 32 -29 56 -48 24 -19 48 -40 54 -45 6 -6 56 -49 111 -95
55 -47 102 -87 105 -90 18 -20 200 -169 220 -182 38 -23 101 -7 124 32 41 70
27 102 -76 186 -40 32 -80 65 -89 74 -16 16 -58 51 -128 110 -24 19 -52 44
-64 55 -13 11 -49 42 -82 70 -111 92 -105 82 -67 116 l32 29 88 -68 c331 -256
368 -282 401 -278 68 7 110 55 103 116 -5 38 -9 41 -557 455 -44 33 -82 62
-85 65 -3 3 -41 32 -84 65 -99 74 -152 124 -140 134 5 4 41 13 79 20 39 6 84
14 100 17 45 7 102 13 187 18 83 5 151 29 182 64 20 23 36 121 20 124 -12 2
-47 5 -124 12 -36 3 -85 8 -110 11 -120 13 -183 17 -270 18 -96 1 -167 -5
-320 -28 -14 -2 -50 -7 -80 -10 -30 -4 -57 -7 -60 -8 -13 -3 -55 17 -101 49
-28 19 -54 34 -58 34 -4 0 -27 -30 -51 -67z"/>
<path d="M3319 3728 c-47 -63 -76 -92 -95 -93 -52 -6 -123 -16 -154 -23 -19
-5 -46 -8 -59 -8 -15 1 -44 -19 -85 -59 -33 -33 -103 -98 -155 -145 -52 -47
-106 -96 -121 -110 -16 -14 -65 -59 -111 -100 -98 -89 -201 -184 -241 -222
-16 -16 -30 -28 -32 -28 -2 0 -21 -17 -43 -37 -21 -21 -72 -67 -112 -103 -72
-65 -102 -104 -98 -131 10 -62 51 -99 112 -99 30 0 57 19 160 115 17 17 78 73
135 125 57 52 109 101 116 108 19 18 27 15 63 -22 l33 -34 -83 -85 c-406 -412
-382 -385 -385 -428 -2 -32 3 -46 24 -69 31 -34 82 -46 115 -29 12 7 124 116
249 243 223 228 227 230 247 212 20 -18 20 -19 -47 -110 -37 -50 -72 -98 -79
-106 -7 -8 -61 -80 -120 -160 -59 -80 -111 -146 -115 -148 -4 -2 -8 -10 -8
-18 0 -8 -6 -17 -14 -20 -19 -7 -46 -77 -41 -104 8 -43 53 -83 96 -85 54 -3
49 -8 315 350 65 88 122 165 127 170 4 6 18 24 31 42 l23 32 31 -32 31 -32
-79 -120 c-89 -135 -85 -129 -140 -208 -22 -32 -40 -60 -40 -63 0 -3 -12 -20
-26 -39 -30 -40 -36 -80 -18 -117 28 -55 95 -75 142 -42 12 8 40 43 62 77 21
34 46 71 54 82 9 11 114 169 234 350 121 182 230 342 244 358 23 26 47 35 49
20 1 -5 3 -17 5 -28 2 -11 13 -60 24 -110 12 -49 24 -99 26 -110 3 -11 6 -42
8 -70 7 -94 46 -200 78 -211 10 -3 18 -10 18 -15 0 -11 80 -12 99 0 10 6 14
43 16 142 8 304 8 425 1 445 -3 12 -8 35 -11 50 -2 16 -8 52 -14 79 -15 70
-18 85 -25 125 -3 19 -8 46 -11 60 -11 53 -13 100 -5 105 5 3 17 23 27 43 9
20 20 39 23 42 3 3 12 19 20 35 8 17 16 33 18 36 1 4 -28 24 -65 45 -37 20
-69 41 -71 46 -2 4 -8 8 -14 8 -11 0 -81 51 -86 63 -2 4 -8 7 -14 7 -6 0 -53
43 -105 95 -52 52 -98 95 -102 95 -5 0 -19 -14 -32 -32z"/>
<path d="M4725 3329 c-16 -5 -46 -12 -65 -15 -19 -3 -42 -7 -50 -10 -45 -16
-272 -23 -380 -13 l-45 4 0 -71 c-1 -69 -2 -71 -58 -150 -31 -43 -65 -90 -77
-104 -11 -14 -20 -36 -21 -50 -1 -14 -3 -38 -4 -55 -1 -16 -6 -70 -10 -120 -3
-49 -8 -106 -10 -125 -3 -32 -9 -100 -20 -245 -2 -27 -7 -86 -10 -130 -3 -44
-8 -100 -10 -125 -10 -114 -21 -250 -30 -387 l-7 -103 32 -30 c27 -25 38 -29
72 -26 45 5 85 37 93 73 3 21 7 68 20 248 3 39 8 99 11 135 2 36 6 81 7 100 2
35 2 35 55 38 l52 3 -6 -283 c-4 -156 -7 -303 -8 -328 -3 -60 17 -98 61 -116
27 -12 42 -13 68 -4 55 18 72 58 74 175 7 295 9 417 10 483 1 69 2 72 25 72
31 0 32 -2 41 -80 3 -36 8 -77 10 -93 2 -15 6 -55 10 -90 4 -34 8 -69 10 -77
2 -9 6 -47 10 -85 6 -70 10 -108 20 -188 3 -23 8 -62 11 -87 6 -57 37 -90 91
-97 34 -4 45 -1 75 25 37 33 39 50 24 172 -11 83 -17 145 -21 190 -3 25 -7 64
-10 88 -13 105 -16 130 -20 177 -3 28 -7 71 -10 96 l-5 46 39 -1 c22 -1 42 -3
45 -6 7 -7 23 -92 27 -140 1 -8 5 -33 9 -55 5 -22 11 -58 14 -80 4 -23 8 -50
10 -62 6 -27 17 -94 20 -113 14 -94 20 -112 48 -135 34 -29 75 -32 119 -10 46
24 54 61 34 165 -3 14 -8 40 -11 59 -3 18 -7 42 -9 51 -2 10 -7 40 -11 67 -3
26 -8 57 -11 68 -2 11 -6 29 -8 40 -1 11 -6 38 -10 60 -4 22 -8 49 -10 60 -4
26 -24 144 -29 171 -2 12 -7 39 -10 60 -4 22 -11 64 -16 94 -27 159 -34 237
-20 245 13 8 211 -124 285 -190 100 -90 193 -117 251 -73 16 12 30 22 30 22 1
1 4 10 8 21 4 14 -5 32 -32 60 -20 23 -99 111 -176 197 -81 91 -166 176 -205
204 -36 27 -67 52 -69 56 -2 5 -8 8 -13 8 -8 0 -71 44 -121 85 -10 8 -36 26
-58 41 -37 24 -45 35 -41 57 0 4 -3 7 -7 7 -7 0 -9 9 -14 65 -1 14 -6 25 -10
25 -4 0 -8 11 -8 25 0 27 -1 28 -45 14z"/>
</g>
</svg>
